<?xml version="1.0" encoding="UTF-8"?>
<svg xmlns="http://www.w3.org/2000/svg" xmlns:xlink="http://www.w3.org/1999/xlink" width="10px" height="px" viewBox="0 0 10 10" version="1.1">
<g id="surface1">
<path style=" stroke:none;fill-rule:nonzero;fill:rgb(17.647059%,32.156864%,48.627451%);fill-opacity:1;" d="M 9.71875 10 L 0.28125 10 C 0.125 10 0 9.875 0 9.71875 L 0 2.191406 C 0 2.039062 0.125 1.910156 0.28125 1.910156 C 0.4375 1.910156 0.5625 2.039062 0.5625 2.191406 L 0.5625 9.4375 L 9.4375 9.4375 L 9.4375 0.5625 L 0.28125 0.5625 C 0.125 0.5625 0 0.4375 0 0.28125 C 0 0.125 0.125 0 0.28125 0 L 9.71875 0 C 9.875 0 10 0.125 10 0.28125 L 10 9.71875 C 10 9.875 9.875 10 9.71875 10 Z M 9.71875 10 "/>
<path style=" stroke:none;fill-rule:nonzero;fill:rgb(80.784315%,90.980393%,98.039216%);fill-opacity:1;" d="M 1.441406 1.441406 L 1.441406 8.558594 L 8.558594 8.558594 L 8.558594 1.441406 Z M 3.375 7.273438 C 2.917969 7.273438 2.550781 6.90625 2.550781 6.449219 C 2.550781 5.996094 2.917969 5.628906 3.375 5.628906 C 3.828125 5.628906 4.195312 5.996094 4.195312 6.449219 C 4.195312 6.90625 3.828125 7.273438 3.375 7.273438 Z M 3.375 4.371094 C 2.917969 4.371094 2.550781 4.003906 2.550781 3.550781 C 2.550781 3.09375 2.917969 2.726562 3.375 2.726562 C 3.828125 2.726562 4.195312 3.09375 4.195312 3.550781 C 4.195312 4.003906 3.828125 4.371094 3.375 4.371094 Z M 6.625 7.273438 C 6.171875 7.273438 5.804688 6.90625 5.804688 6.449219 C 5.804688 5.996094 6.171875 5.628906 6.625 5.628906 C 7.082031 5.628906 7.449219 5.996094 7.449219 6.449219 C 7.449219 6.90625 7.082031 7.273438 6.625 7.273438 Z M 6.625 4.371094 C 6.171875 4.371094 5.804688 4.003906 5.804688 3.550781 C 5.804688 3.09375 6.171875 2.726562 6.625 2.726562 C 7.082031 2.726562 7.449219 3.09375 7.449219 3.550781 C 7.449219 4.003906 7.082031 4.371094 6.625 4.371094 Z M 6.625 4.371094 "/>
<path style=" stroke:none;fill-rule:nonzero;fill:rgb(17.647059%,32.156864%,48.627451%);fill-opacity:1;" d="M 8.558594 8.839844 L 1.441406 8.839844 C 1.285156 8.839844 1.160156 8.714844 1.160156 8.558594 L 1.160156 1.441406 C 1.160156 1.285156 1.285156 1.160156 1.441406 1.160156 L 8.558594 1.160156 C 8.714844 1.160156 8.839844 1.285156 8.839844 1.441406 L 8.839844 8.558594 C 8.839844 8.714844 8.714844 8.839844 8.558594 8.839844 Z M 1.722656 8.277344 L 8.277344 8.277344 L 8.277344 1.722656 L 1.722656 1.722656 Z M 6.625 7.554688 C 6.015625 7.554688 5.523438 7.058594 5.523438 6.449219 C 5.523438 5.839844 6.015625 5.347656 6.625 5.347656 C 7.234375 5.347656 7.730469 5.839844 7.730469 6.449219 C 7.730469 7.058594 7.234375 7.554688 6.625 7.554688 Z M 6.625 5.910156 C 6.328125 5.910156 6.082031 6.152344 6.082031 6.449219 C 6.082031 6.75 6.328125 6.992188 6.625 6.992188 C 6.925781 6.992188 7.167969 6.75 7.167969 6.449219 C 7.167969 6.152344 6.925781 5.910156 6.625 5.910156 Z M 3.375 7.554688 C 2.765625 7.554688 2.269531 7.058594 2.269531 6.449219 C 2.269531 5.839844 2.765625 5.347656 3.375 5.347656 C 3.984375 5.347656 4.476562 5.839844 4.476562 6.449219 C 4.476562 7.058594 3.984375 7.554688 3.375 7.554688 Z M 3.375 5.910156 C 3.074219 5.910156 2.832031 6.152344 2.832031 6.449219 C 2.832031 6.75 3.074219 6.992188 3.375 6.992188 C 3.671875 6.992188 3.917969 6.75 3.917969 6.449219 C 3.917969 6.152344 3.671875 5.910156 3.375 5.910156 Z M 6.625 4.652344 C 6.015625 4.652344 5.523438 4.160156 5.523438 3.550781 C 5.523438 2.941406 6.015625 2.445312 6.625 2.445312 C 7.234375 2.445312 7.730469 2.941406 7.730469 3.550781 C 7.730469 4.160156 7.234375 4.652344 6.625 4.652344 Z M 6.625 3.007812 C 6.328125 3.007812 6.082031 3.25 6.082031 3.550781 C 6.082031 3.847656 6.328125 4.089844 6.625 4.089844 C 6.925781 4.089844 7.167969 3.847656 7.167969 3.550781 C 7.167969 3.25 6.925781 3.007812 6.625 3.007812 Z M 3.375 4.652344 C 2.765625 4.652344 2.269531 4.160156 2.269531 3.550781 C 2.269531 2.941406 2.765625 2.445312 3.375 2.445312 C 3.984375 2.445312 4.476562 2.941406 4.476562 3.550781 C 4.476562 4.160156 3.984375 4.652344 3.375 4.652344 Z M 3.375 3.007812 C 3.074219 3.007812 2.832031 3.25 2.832031 3.550781 C 2.832031 3.847656 3.074219 4.089844 3.375 4.089844 C 3.671875 4.089844 3.917969 3.847656 3.917969 3.550781 C 3.917969 3.25 3.671875 3.007812 3.375 3.007812 Z M 3.375 3.007812 "/>
</g>
</svg>
