<?xml version="1.0" encoding="UTF-8"?>
<svg xmlns="http://www.w3.org/2000/svg" xmlns:xlink="http://www.w3.org/1999/xlink" width="10px" height="px" viewBox="0 0 10 10" version="1.1">
<g id="surface1">
<path style=" stroke:none;fill-rule:nonzero;fill:rgb(17.647059%,32.156864%,48.627451%);fill-opacity:1;" d="M 9.71875 10 L 0.28125 10 C 0.125 10 0 9.875 0 9.71875 L 0 2.191406 C 0 2.039062 0.125 1.910156 0.28125 1.910156 C 0.4375 1.910156 0.5625 2.039062 0.5625 2.191406 L 0.5625 9.4375 L 9.4375 9.4375 L 9.4375 0.5625 L 0.28125 0.5625 C 0.125 0.5625 0 0.4375 0 0.28125 C 0 0.125 0.125 0 0.28125 0 L 9.71875 0 C 9.875 0 10 0.125 10 0.28125 L 10 9.71875 C 10 9.875 9.875 10 9.71875 10 Z M 9.71875 10 "/>
<path style=" stroke:none;fill-rule:nonzero;fill:rgb(80.784315%,90.980393%,98.039216%);fill-opacity:1;" d="M 1.441406 1.441406 L 1.441406 8.558594 L 8.558594 8.558594 L 8.558594 1.441406 Z M 3.09375 7.734375 C 2.636719 7.734375 2.269531 7.363281 2.269531 6.910156 C 2.269531 6.453125 2.636719 6.085938 3.09375 6.085938 C 3.546875 6.085938 3.914062 6.453125 3.914062 6.910156 C 3.914062 7.363281 3.546875 7.734375 3.09375 7.734375 Z M 3.09375 3.914062 C 2.636719 3.914062 2.269531 3.546875 2.269531 3.089844 C 2.269531 2.636719 2.636719 2.265625 3.09375 2.265625 C 3.546875 2.265625 3.914062 2.636719 3.914062 3.089844 C 3.914062 3.546875 3.546875 3.914062 3.09375 3.914062 Z M 5 5.824219 C 4.546875 5.824219 4.175781 5.453125 4.175781 5 C 4.175781 4.546875 4.546875 4.175781 5 4.175781 C 5.453125 4.175781 5.824219 4.546875 5.824219 5 C 5.824219 5.453125 5.453125 5.824219 5 5.824219 Z M 6.90625 7.734375 C 6.453125 7.734375 6.085938 7.363281 6.085938 6.910156 C 6.085938 6.453125 6.453125 6.085938 6.90625 6.085938 C 7.363281 6.085938 7.730469 6.453125 7.730469 6.910156 C 7.730469 7.363281 7.363281 7.734375 6.90625 7.734375 Z M 6.90625 3.914062 C 6.453125 3.914062 6.085938 3.546875 6.085938 3.089844 C 6.085938 2.636719 6.453125 2.265625 6.90625 2.265625 C 7.363281 2.265625 7.730469 2.636719 7.730469 3.089844 C 7.730469 3.546875 7.363281 3.914062 6.90625 3.914062 Z M 6.90625 3.914062 "/>
<path style=" stroke:none;fill-rule:nonzero;fill:rgb(17.647059%,32.156864%,48.627451%);fill-opacity:1;" d="M 8.558594 8.839844 L 1.441406 8.839844 C 1.285156 8.839844 1.160156 8.714844 1.160156 8.558594 L 1.160156 1.441406 C 1.160156 1.285156 1.285156 1.160156 1.441406 1.160156 L 8.558594 1.160156 C 8.714844 1.160156 8.839844 1.285156 8.839844 1.441406 L 8.839844 8.558594 C 8.839844 8.714844 8.714844 8.839844 8.558594 8.839844 Z M 1.722656 8.277344 L 8.277344 8.277344 L 8.277344 1.722656 L 1.722656 1.722656 Z M 6.90625 8.011719 C 6.296875 8.011719 5.804688 7.519531 5.804688 6.910156 C 5.804688 6.300781 6.296875 5.804688 6.90625 5.804688 C 7.515625 5.804688 8.011719 6.300781 8.011719 6.910156 C 8.011719 7.519531 7.515625 8.011719 6.90625 8.011719 Z M 6.90625 6.367188 C 6.609375 6.367188 6.363281 6.609375 6.363281 6.910156 C 6.363281 7.207031 6.609375 7.453125 6.90625 7.453125 C 7.207031 7.453125 7.449219 7.207031 7.449219 6.910156 C 7.449219 6.609375 7.207031 6.367188 6.90625 6.367188 Z M 3.09375 8.011719 C 2.484375 8.011719 1.988281 7.519531 1.988281 6.910156 C 1.988281 6.300781 2.484375 5.804688 3.09375 5.804688 C 3.703125 5.804688 4.195312 6.300781 4.195312 6.910156 C 4.195312 7.519531 3.703125 8.011719 3.09375 8.011719 Z M 3.09375 6.367188 C 2.792969 6.367188 2.550781 6.609375 2.550781 6.910156 C 2.550781 7.207031 2.792969 7.453125 3.09375 7.453125 C 3.390625 7.453125 3.636719 7.207031 3.636719 6.910156 C 3.636719 6.609375 3.390625 6.367188 3.09375 6.367188 Z M 5 6.105469 C 4.390625 6.105469 3.894531 5.609375 3.894531 5 C 3.894531 4.390625 4.390625 3.894531 5 3.894531 C 5.609375 3.894531 6.105469 4.390625 6.105469 5 C 6.105469 5.609375 5.609375 6.105469 5 6.105469 Z M 5 4.457031 C 4.699219 4.457031 4.457031 4.699219 4.457031 5 C 4.457031 5.300781 4.699219 5.542969 5 5.542969 C 5.300781 5.542969 5.542969 5.300781 5.542969 5 C 5.542969 4.699219 5.300781 4.457031 5 4.457031 Z M 6.90625 4.195312 C 6.296875 4.195312 5.804688 3.699219 5.804688 3.089844 C 5.804688 2.480469 6.296875 1.988281 6.90625 1.988281 C 7.515625 1.988281 8.011719 2.480469 8.011719 3.089844 C 8.011719 3.699219 7.515625 4.195312 6.90625 4.195312 Z M 6.90625 2.546875 C 6.609375 2.546875 6.363281 2.792969 6.363281 3.089844 C 6.363281 3.390625 6.609375 3.632812 6.90625 3.632812 C 7.207031 3.632812 7.449219 3.390625 7.449219 3.089844 C 7.449219 2.792969 7.207031 2.546875 6.90625 2.546875 Z M 3.09375 4.195312 C 2.484375 4.195312 1.988281 3.699219 1.988281 3.089844 C 1.988281 2.480469 2.484375 1.988281 3.09375 1.988281 C 3.703125 1.988281 4.195312 2.480469 4.195312 3.089844 C 4.195312 3.699219 3.703125 4.195312 3.09375 4.195312 Z M 3.09375 2.546875 C 2.792969 2.546875 2.550781 2.792969 2.550781 3.089844 C 2.550781 3.390625 2.792969 3.632812 3.09375 3.632812 C 3.390625 3.632812 3.636719 3.390625 3.636719 3.089844 C 3.636719 2.792969 3.390625 2.546875 3.09375 2.546875 Z M 3.09375 2.546875 "/>
</g>
</svg>
