<?xml version="1.0" encoding="UTF-8"?>
<svg xmlns="http://www.w3.org/2000/svg" xmlns:xlink="http://www.w3.org/1999/xlink" width="10px" height="px" viewBox="0 0 10 10" version="1.1">
<g id="surface1">
<path style=" stroke:none;fill-rule:nonzero;fill:rgb(17.647059%,32.156864%,48.627451%);fill-opacity:1;" d="M 9.71875 10 L 0.28125 10 C 0.125 10 0 9.875 0 9.71875 L 0 2.191406 C 0 2.039062 0.125 1.910156 0.28125 1.910156 C 0.4375 1.910156 0.5625 2.039062 0.5625 2.191406 L 0.5625 9.4375 L 9.4375 9.4375 L 9.4375 0.5625 L 0.28125 0.5625 C 0.125 0.5625 0 0.4375 0 0.28125 C 0 0.125 0.125 0 0.28125 0 L 9.71875 0 C 9.875 0 10 0.125 10 0.28125 L 10 9.71875 C 10 9.875 9.875 10 9.71875 10 Z M 9.71875 10 "/>
<path style=" stroke:none;fill-rule:nonzero;fill:rgb(80.784315%,90.980393%,98.039216%);fill-opacity:1;" d="M 1.441406 1.441406 L 1.441406 8.558594 L 8.558594 8.558594 L 8.558594 1.441406 Z M 3.113281 3.9375 C 2.660156 3.9375 2.289062 3.566406 2.289062 3.113281 C 2.289062 2.660156 2.660156 2.289062 3.113281 2.289062 C 3.566406 2.289062 3.9375 2.660156 3.9375 3.113281 C 3.9375 3.566406 3.566406 3.9375 3.113281 3.9375 Z M 5 5.824219 C 4.546875 5.824219 4.175781 5.453125 4.175781 5 C 4.175781 4.546875 4.546875 4.175781 5 4.175781 C 5.453125 4.175781 5.824219 4.546875 5.824219 5 C 5.824219 5.453125 5.453125 5.824219 5 5.824219 Z M 6.886719 7.710938 C 6.433594 7.710938 6.0625 7.339844 6.0625 6.886719 C 6.0625 6.429688 6.433594 6.0625 6.886719 6.0625 C 7.339844 6.0625 7.710938 6.429688 7.710938 6.886719 C 7.710938 7.339844 7.339844 7.710938 6.886719 7.710938 Z M 6.886719 7.710938 "/>
<path style=" stroke:none;fill-rule:nonzero;fill:rgb(17.647059%,32.156864%,48.627451%);fill-opacity:1;" d="M 8.558594 8.839844 L 1.441406 8.839844 C 1.285156 8.839844 1.160156 8.714844 1.160156 8.558594 L 1.160156 1.441406 C 1.160156 1.285156 1.285156 1.160156 1.441406 1.160156 L 8.558594 1.160156 C 8.714844 1.160156 8.839844 1.285156 8.839844 1.441406 L 8.839844 8.558594 C 8.839844 8.714844 8.714844 8.839844 8.558594 8.839844 Z M 1.722656 8.277344 L 8.277344 8.277344 L 8.277344 1.722656 L 1.722656 1.722656 Z M 6.886719 7.992188 C 6.277344 7.992188 5.78125 7.496094 5.78125 6.886719 C 5.78125 6.277344 6.277344 5.78125 6.886719 5.78125 C 7.496094 5.78125 7.992188 6.277344 7.992188 6.886719 C 7.992188 7.496094 7.496094 7.992188 6.886719 7.992188 Z M 6.886719 6.34375 C 6.585938 6.34375 6.34375 6.585938 6.34375 6.886719 C 6.34375 7.183594 6.585938 7.429688 6.886719 7.429688 C 7.183594 7.429688 7.429688 7.183594 7.429688 6.886719 C 7.429688 6.585938 7.183594 6.34375 6.886719 6.34375 Z M 5 6.105469 C 4.390625 6.105469 3.894531 5.609375 3.894531 5 C 3.894531 4.390625 4.390625 3.894531 5 3.894531 C 5.609375 3.894531 6.105469 4.390625 6.105469 5 C 6.105469 5.609375 5.609375 6.105469 5 6.105469 Z M 5 4.457031 C 4.699219 4.457031 4.457031 4.699219 4.457031 5 C 4.457031 5.300781 4.699219 5.542969 5 5.542969 C 5.300781 5.542969 5.542969 5.300781 5.542969 5 C 5.542969 4.699219 5.300781 4.457031 5 4.457031 Z M 3.113281 4.21875 C 2.503906 4.21875 2.007812 3.722656 2.007812 3.113281 C 2.007812 2.503906 2.503906 2.007812 3.113281 2.007812 C 3.722656 2.007812 4.21875 2.503906 4.21875 3.113281 C 4.21875 3.722656 3.722656 4.21875 3.113281 4.21875 Z M 3.113281 2.570312 C 2.816406 2.570312 2.570312 2.816406 2.570312 3.113281 C 2.570312 3.414062 2.816406 3.65625 3.113281 3.65625 C 3.414062 3.65625 3.65625 3.414062 3.65625 3.113281 C 3.65625 2.816406 3.414062 2.570312 3.113281 2.570312 Z M 3.113281 2.570312 "/>
</g>
</svg>
