<?xml version="1.0" encoding="UTF-8"?>
<svg xmlns="http://www.w3.org/2000/svg" xmlns:xlink="http://www.w3.org/1999/xlink" width="10px" height="px" viewBox="0 0 10 10" version="1.1">
<g id="surface1">
<path style=" stroke:none;fill-rule:nonzero;fill:rgb(17.647059%,32.156864%,48.627451%);fill-opacity:1;" d="M 9.71875 10 L 0.28125 10 C 0.125 10 0 9.875 0 9.71875 L 0 2.191406 C 0 2.039062 0.125 1.910156 0.28125 1.910156 C 0.4375 1.910156 0.5625 2.039062 0.5625 2.191406 L 0.5625 9.4375 L 9.4375 9.4375 L 9.4375 0.5625 L 0.28125 0.5625 C 0.125 0.5625 0 0.4375 0 0.28125 C 0 0.125 0.125 0 0.28125 0 L 9.71875 0 C 9.875 0 10 0.125 10 0.28125 L 10 9.71875 C 10 9.875 9.875 10 9.71875 10 Z M 9.71875 10 "/>
<path style=" stroke:none;fill-rule:nonzero;fill:rgb(80.784315%,90.980393%,98.039216%);fill-opacity:1;" d="M 1.441406 1.441406 L 1.441406 8.558594 L 8.558594 8.558594 L 8.558594 1.441406 Z M 3.59375 7.714844 C 3.140625 7.714844 2.769531 7.34375 2.769531 6.890625 C 2.769531 6.4375 3.140625 6.066406 3.59375 6.066406 C 4.050781 6.066406 4.417969 6.4375 4.417969 6.890625 C 4.417969 7.34375 4.050781 7.714844 3.59375 7.714844 Z M 3.59375 5.824219 C 3.140625 5.824219 2.769531 5.453125 2.769531 5 C 2.769531 4.546875 3.140625 4.175781 3.59375 4.175781 C 4.050781 4.175781 4.417969 4.546875 4.417969 5 C 4.417969 5.453125 4.050781 5.824219 3.59375 5.824219 Z M 3.59375 3.933594 C 3.140625 3.933594 2.769531 3.5625 2.769531 3.109375 C 2.769531 2.65625 3.140625 2.285156 3.59375 2.285156 C 4.050781 2.285156 4.417969 2.65625 4.417969 3.109375 C 4.417969 3.5625 4.050781 3.933594 3.59375 3.933594 Z M 6.40625 7.714844 C 5.949219 7.714844 5.582031 7.34375 5.582031 6.890625 C 5.582031 6.4375 5.949219 6.066406 6.40625 6.066406 C 6.859375 6.066406 7.230469 6.4375 7.230469 6.890625 C 7.230469 7.34375 6.859375 7.714844 6.40625 7.714844 Z M 6.40625 5.824219 C 5.949219 5.824219 5.582031 5.453125 5.582031 5 C 5.582031 4.546875 5.949219 4.175781 6.40625 4.175781 C 6.859375 4.175781 7.230469 4.546875 7.230469 5 C 7.230469 5.453125 6.859375 5.824219 6.40625 5.824219 Z M 6.40625 3.933594 C 5.949219 3.933594 5.582031 3.5625 5.582031 3.109375 C 5.582031 2.65625 5.949219 2.285156 6.40625 2.285156 C 6.859375 2.285156 7.230469 2.65625 7.230469 3.109375 C 7.230469 3.5625 6.859375 3.933594 6.40625 3.933594 Z M 6.40625 3.933594 "/>
<path style=" stroke:none;fill-rule:nonzero;fill:rgb(17.647059%,32.156864%,48.627451%);fill-opacity:1;" d="M 8.558594 8.839844 L 1.441406 8.839844 C 1.285156 8.839844 1.160156 8.714844 1.160156 8.558594 L 1.160156 1.441406 C 1.160156 1.285156 1.285156 1.160156 1.441406 1.160156 L 8.558594 1.160156 C 8.714844 1.160156 8.839844 1.285156 8.839844 1.441406 L 8.839844 8.558594 C 8.839844 8.714844 8.714844 8.839844 8.558594 8.839844 Z M 1.722656 8.277344 L 8.277344 8.277344 L 8.277344 1.722656 L 1.722656 1.722656 Z M 6.40625 7.996094 C 5.796875 7.996094 5.300781 7.5 5.300781 6.890625 C 5.300781 6.492188 5.515625 6.140625 5.835938 5.945312 C 5.515625 5.75 5.300781 5.402344 5.300781 5 C 5.300781 4.601562 5.515625 4.25 5.835938 4.054688 C 5.515625 3.859375 5.300781 3.507812 5.300781 3.109375 C 5.300781 2.5 5.796875 2.003906 6.40625 2.003906 C 7.015625 2.003906 7.511719 2.5 7.511719 3.109375 C 7.511719 3.507812 7.296875 3.859375 6.976562 4.054688 C 7.296875 4.25 7.511719 4.597656 7.511719 5 C 7.511719 5.402344 7.296875 5.75 6.976562 5.945312 C 7.296875 6.140625 7.511719 6.492188 7.511719 6.890625 C 7.511719 7.5 7.015625 7.996094 6.40625 7.996094 Z M 6.40625 6.347656 C 6.105469 6.347656 5.863281 6.59375 5.863281 6.890625 C 5.863281 7.191406 6.105469 7.433594 6.40625 7.433594 C 6.703125 7.433594 6.949219 7.191406 6.949219 6.890625 C 6.949219 6.59375 6.703125 6.347656 6.40625 6.347656 Z M 6.40625 4.457031 C 6.105469 4.457031 5.863281 4.699219 5.863281 5 C 5.863281 5.300781 6.105469 5.542969 6.40625 5.542969 C 6.703125 5.542969 6.949219 5.300781 6.949219 5 C 6.949219 4.699219 6.703125 4.457031 6.40625 4.457031 Z M 6.40625 2.566406 C 6.105469 2.566406 5.863281 2.808594 5.863281 3.109375 C 5.863281 3.40625 6.105469 3.652344 6.40625 3.652344 C 6.703125 3.652344 6.949219 3.40625 6.949219 3.109375 C 6.949219 2.808594 6.703125 2.566406 6.40625 2.566406 Z M 3.59375 7.996094 C 2.984375 7.996094 2.488281 7.5 2.488281 6.890625 C 2.488281 6.492188 2.703125 6.140625 3.023438 5.945312 C 2.703125 5.75 2.488281 5.402344 2.488281 5 C 2.488281 4.601562 2.703125 4.25 3.023438 4.054688 C 2.703125 3.859375 2.488281 3.507812 2.488281 3.109375 C 2.488281 2.5 2.984375 2.003906 3.59375 2.003906 C 4.203125 2.003906 4.699219 2.5 4.699219 3.109375 C 4.699219 3.507812 4.484375 3.859375 4.164062 4.054688 C 4.484375 4.25 4.699219 4.597656 4.699219 5 C 4.699219 5.402344 4.484375 5.75 4.164062 5.945312 C 4.484375 6.140625 4.699219 6.492188 4.699219 6.890625 C 4.699219 7.5 4.203125 7.996094 3.59375 7.996094 Z M 3.59375 6.347656 C 3.296875 6.347656 3.050781 6.59375 3.050781 6.890625 C 3.050781 7.191406 3.296875 7.433594 3.59375 7.433594 C 3.894531 7.433594 4.136719 7.191406 4.136719 6.890625 C 4.136719 6.59375 3.894531 6.347656 3.59375 6.347656 Z M 3.59375 4.457031 C 3.296875 4.457031 3.050781 4.699219 3.050781 5 C 3.050781 5.300781 3.296875 5.542969 3.59375 5.542969 C 3.894531 5.542969 4.136719 5.300781 4.136719 5 C 4.136719 4.699219 3.894531 4.457031 3.59375 4.457031 Z M 3.59375 2.566406 C 3.296875 2.566406 3.050781 2.808594 3.050781 3.109375 C 3.050781 3.40625 3.296875 3.652344 3.59375 3.652344 C 3.894531 3.652344 4.136719 3.40625 4.136719 3.109375 C 4.136719 2.808594 3.894531 2.566406 3.59375 2.566406 Z M 3.59375 2.566406 "/>
</g>
</svg>
