<?xml version="1.0" encoding="UTF-8"?>
<svg xmlns="http://www.w3.org/2000/svg" xmlns:xlink="http://www.w3.org/1999/xlink" width="10px" height="px" viewBox="0 0 10 10" version="1.1">
<g id="surface1">
<path style=" stroke:none;fill-rule:nonzero;fill:rgb(17.647059%,32.156864%,48.627451%);fill-opacity:1;" d="M 9.71875 10 L 0.28125 10 C 0.125 10 0 9.875 0 9.71875 L 0 2.191406 C 0 2.039062 0.125 1.910156 0.28125 1.910156 C 0.4375 1.910156 0.5625 2.039062 0.5625 2.191406 L 0.5625 9.4375 L 9.4375 9.4375 L 9.4375 0.5625 L 0.28125 0.5625 C 0.125 0.5625 0 0.4375 0 0.28125 C 0 0.125 0.125 0 0.28125 0 L 9.71875 0 C 9.875 0 10 0.125 10 0.28125 L 10 9.71875 C 10 9.875 9.875 10 9.71875 10 Z M 9.71875 10 "/>
<path style=" stroke:none;fill-rule:nonzero;fill:rgb(80.784315%,90.980393%,98.039216%);fill-opacity:1;" d="M 1.441406 1.441406 L 1.441406 8.558594 L 8.558594 8.558594 L 8.558594 1.441406 Z M 3.496094 4.351562 C 3.039062 4.351562 2.671875 3.984375 2.671875 3.527344 C 2.671875 3.074219 3.039062 2.707031 3.496094 2.707031 C 3.949219 2.707031 4.316406 3.074219 4.316406 3.527344 C 4.316406 3.984375 3.949219 4.351562 3.496094 4.351562 Z M 6.503906 7.292969 C 6.050781 7.292969 5.683594 6.925781 5.683594 6.472656 C 5.683594 6.015625 6.050781 5.648438 6.503906 5.648438 C 6.960938 5.648438 7.328125 6.015625 7.328125 6.472656 C 7.328125 6.925781 6.960938 7.292969 6.503906 7.292969 Z M 6.503906 7.292969 "/>
<path style=" stroke:none;fill-rule:nonzero;fill:rgb(17.647059%,32.156864%,48.627451%);fill-opacity:1;" d="M 8.558594 8.839844 L 1.441406 8.839844 C 1.285156 8.839844 1.160156 8.714844 1.160156 8.558594 L 1.160156 1.441406 C 1.160156 1.285156 1.285156 1.160156 1.441406 1.160156 L 8.558594 1.160156 C 8.714844 1.160156 8.839844 1.285156 8.839844 1.441406 L 8.839844 8.558594 C 8.839844 8.714844 8.714844 8.839844 8.558594 8.839844 Z M 1.722656 8.277344 L 8.277344 8.277344 L 8.277344 1.722656 L 1.722656 1.722656 Z M 6.503906 7.574219 C 5.898438 7.574219 5.402344 7.082031 5.402344 6.472656 C 5.402344 5.863281 5.898438 5.367188 6.503906 5.367188 C 7.113281 5.367188 7.609375 5.863281 7.609375 6.472656 C 7.609375 7.082031 7.113281 7.574219 6.503906 7.574219 Z M 6.503906 5.929688 C 6.207031 5.929688 5.964844 6.171875 5.964844 6.472656 C 5.964844 6.769531 6.207031 7.011719 6.503906 7.011719 C 6.804688 7.011719 7.046875 6.769531 7.046875 6.472656 C 7.046875 6.171875 6.804688 5.929688 6.503906 5.929688 Z M 3.496094 4.632812 C 2.886719 4.632812 2.390625 4.136719 2.390625 3.527344 C 2.390625 2.917969 2.886719 2.425781 3.496094 2.425781 C 4.101562 2.425781 4.597656 2.917969 4.597656 3.527344 C 4.597656 4.136719 4.101562 4.632812 3.496094 4.632812 Z M 3.496094 2.988281 C 3.195312 2.988281 2.953125 3.230469 2.953125 3.527344 C 2.953125 3.828125 3.195312 4.070312 3.496094 4.070312 C 3.792969 4.070312 4.035156 3.828125 4.035156 3.527344 C 4.035156 3.230469 3.792969 2.988281 3.496094 2.988281 Z M 3.496094 2.988281 "/>
</g>
</svg>
